<?xml version="1.0" encoding="UTF-8"?>
<!DOCTYPE svg PUBLIC "-//W3C//DTD SVG 1.1//EN" "http://www.w3.org/Graphics/SVG/1.1/DTD/svg11.dtd">
<svg xmlns="http://www.w3.org/2000/svg" version="1.1" width="289px" height="261px" style="shape-rendering:geometricPrecision; text-rendering:geometricPrecision; image-rendering:optimizeQuality; fill-rule:evenodd; clip-rule:evenodd" xmlns:xlink="http://www.w3.org/1999/xlink">
<g><path style="opacity:1" fill="#060c4a" d="M -0.5,-0.5 C 95.8333,-0.5 192.167,-0.5 288.5,-0.5C 288.5,86.5 288.5,173.5 288.5,260.5C 192.167,260.5 95.8333,260.5 -0.5,260.5C -0.5,173.5 -0.5,86.5 -0.5,-0.5 Z"/></g>
<g><path style="opacity:1" fill="#04affa" d="M 198.5,15.5 C 207.902,14.7258 211.069,18.7258 208,27.5C 206.406,29.2971 204.406,30.2971 202,30.5C 199.192,29.6137 196.359,29.447 193.5,30C 188.333,33.1667 183.167,36.3333 178,39.5C 178.093,43.8261 178.093,48.1595 178,52.5C 176.479,57.7028 174.312,62.5361 171.5,67C 173.468,72.6009 176.468,77.6009 180.5,82C 193.672,81.8242 198.505,87.9908 195,100.5C 186.418,109.024 179.085,108.024 173,97.5C 172.333,95.1667 172.333,92.8333 173,90.5C 174.257,88.4874 175.091,86.3207 175.5,84C 173.619,78.9061 170.952,74.2394 167.5,70C 148.826,72.7828 138.66,64.9494 137,46.5C 136.167,45.6667 135.333,44.8333 134.5,44C 129.619,42.0389 124.619,41.0389 119.5,41C 109.532,50.4218 101.032,49.2551 94,37.5C 92.5982,27.069 97.0982,21.069 107.5,19.5C 116.616,20.9501 121.616,26.2834 122.5,35.5C 127.723,38.784 133.389,40.284 139.5,40C 144.864,31.4872 152.53,28.1538 162.5,30C 167.149,31.6576 171.482,33.8243 175.5,36.5C 181.294,33.4346 186.96,30.1012 192.5,26.5C 194.015,24.4527 194.849,22.1193 195,19.5C 196.376,18.2949 197.542,16.9616 198.5,15.5 Z"/></g>
<g><path style="opacity:1" fill="#02cbd0" d="M 205.5,36.5 C 221.95,35.7717 227.45,43.1051 222,58.5C 220.622,60.2134 218.955,61.5467 217,62.5C 216.276,68.3134 216.942,73.9801 219,79.5C 236.574,82.4153 244.241,92.7486 242,110.5C 247.418,113.793 252.918,116.96 258.5,120C 261.953,120.25 265.286,119.917 268.5,119C 275.175,122.368 276.175,127.035 271.5,133C 268.5,135 265.5,135 262.5,133C 260.465,130.02 258.798,126.853 257.5,123.5C 251.811,120.073 245.977,117.073 240,114.5C 235.316,117.814 230.149,120.314 224.5,122C 220.823,122.108 217.157,122.108 213.5,122C 210.627,125.577 208.127,129.411 206,133.5C 207.813,139.232 208.48,145.232 208,151.5C 201.526,161.244 194.193,161.911 186,153.5C 182.573,140.922 187.407,134.755 200.5,135C 205.428,129.668 207.928,123.501 208,116.5C 200.61,108.268 199.61,99.2684 205,89.5C 207.638,86.6833 210.638,84.35 214,82.5C 215.528,75.5221 214.028,69.3554 209.5,64C 201.375,62.874 197.041,58.2074 196.5,50C 197.28,44.0479 200.28,39.5479 205.5,36.5 Z"/></g>
<g><path style="opacity:1" fill="#02ccd1" d="M 76.5,19.5 C 85.56,19.0461 88.7266,23.0461 86,31.5C 84.6667,32.8333 83.3333,34.1667 82,35.5C 81.3333,42.1667 81.3333,48.8333 82,55.5C 82.4652,56.9308 83.2986,58.0975 84.5,59C 89.5368,60.016 93.7035,62.516 97,66.5C 98.8657,69.6868 100.699,72.8534 102.5,76C 107.833,76.6667 113.167,76.6667 118.5,76C 121.157,73.0408 123.824,70.0408 126.5,67C 139.66,63.9875 145.493,69.1542 144,82.5C 139.544,89.5703 133.378,91.4036 125.5,88C 123.343,86.0188 121.676,83.6855 120.5,81C 114.5,80.3333 108.5,80.3333 102.5,81C 100.294,84.268 98.4607,87.768 97,91.5C 88.9892,100.064 79.8226,101.564 69.5,96C 67.8333,95.3333 66.1667,95.3333 64.5,96C 61.0507,98.4816 57.884,101.315 55,104.5C 54.5552,107.678 54.7219,110.845 55.5,114C 54.1027,125.383 47.7694,129.716 36.5,127C 27.8582,122.217 25.6915,115.384 30,106.5C 31.8734,104.291 34.04,102.458 36.5,101C 41.9719,100.417 47.3053,100.75 52.5,102C 56.0945,98.9502 59.5945,95.7836 63,92.5C 62.1145,87.7647 61.2812,82.9314 60.5,78C 61.5965,68.1604 66.9299,61.827 76.5,59C 77.1258,58.2496 77.6258,57.4162 78,56.5C 78.6667,49.8333 78.6667,43.1667 78,36.5C 70.0868,31.262 69.5868,25.5953 76.5,19.5 Z"/></g>
<g><path style="opacity:1" fill="#06aefa" d="M 88.5,102.5 C 97.3801,101.562 102.713,105.395 104.5,114C 104.467,119.406 102.134,123.406 97.5,126C 94.0445,126.18 90.7111,126.847 87.5,128C 83.4471,132.912 81.2804,138.412 81,144.5C 88.4915,153.041 89.4915,162.374 84,172.5C 81.6166,175.273 78.7833,177.439 75.5,179C 74.8509,184.495 75.3509,189.995 77,195.5C 81.7702,197.342 86.1035,200.008 90,203.5C 94.3014,211.569 92.8014,218.403 85.5,224C 75.3,227.982 68.4667,224.816 65,214.5C 64.0694,207.415 66.7361,202.082 73,198.5C 73.412,193.386 72.7453,188.386 71,183.5C 70.1667,182.667 69.3333,181.833 68.5,181C 59.6176,180.435 53.1176,176.268 49,168.5C 47.8763,162.897 47.2096,157.231 47,151.5C 41.7582,147.934 36.2582,144.767 30.5,142C 26.5159,142.186 22.5159,142.186 18.5,142C 13.6875,137.959 13.3541,133.625 17.5,129C 24.8573,126.007 29.0239,128.507 30,136.5C 35.8078,141.323 42.3078,144.989 49.5,147.5C 53.2734,145.57 56.9401,143.403 60.5,141C 62.7999,140.342 65.1332,139.842 67.5,139.5C 73.4026,141.963 77.5693,140.296 80,134.5C 81.6203,131.425 83.1203,128.258 84.5,125C 78.1398,116.015 79.4732,108.515 88.5,102.5 Z"/></g>
<g><path style="opacity:1" fill="#05aef9" d="M 244.5,133.5 C 258.362,134.185 263.528,141.185 260,154.5C 257.98,157.757 255.146,159.924 251.5,161C 246.399,161.401 241.399,161.068 236.5,160C 233.428,162.951 230.261,165.784 227,168.5C 227.152,173.167 227.652,177.833 228.5,182.5C 228.756,188.568 226.756,193.735 222.5,198C 218.649,200.169 214.815,202.336 211,204.5C 210.333,211.5 210.333,218.5 211,225.5C 212.667,227.167 214.333,228.833 216,230.5C 218.736,239.102 215.57,242.936 206.5,242C 201.059,236.681 201.226,231.514 207,226.5C 207.667,219.5 207.667,212.5 207,205.5C 202.683,203.362 198.516,200.862 194.5,198C 191.573,194.138 188.907,190.138 186.5,186C 181.167,185.333 175.833,185.333 170.5,186C 167.809,190.356 164.142,193.689 159.5,196C 146.969,195.793 142.469,189.626 146,177.5C 155.076,169.085 162.91,170.251 169.5,181C 175.167,181.667 180.833,181.667 186.5,181C 188.664,177.185 190.831,173.351 193,169.5C 200.987,161.787 209.821,160.621 219.5,166C 221.167,166.667 222.833,166.667 224.5,166C 227.965,163.537 231.131,160.704 234,157.5C 234.546,154.145 234.379,150.812 233.5,147.5C 234.254,140.426 237.92,135.759 244.5,133.5 Z"/></g>
<g><path style="opacity:1" fill="#01cbd0" d="M 100.5,155.5 C 109.525,154.671 114.858,158.671 116.5,167.5C 115.024,171.758 114.19,176.091 114,180.5C 116.624,184.248 119.124,188.081 121.5,192C 132.668,189.983 141.835,193.149 149,201.5C 150.94,205.943 151.94,210.61 152,215.5C 157.134,219.48 162.967,221.313 169.5,221C 178.846,211.895 187.346,212.728 195,223.5C 196.801,232.737 193.301,238.904 184.5,242C 178.628,242.931 173.795,241.098 170,236.5C 168.621,232.542 167.121,228.709 165.5,225C 160.313,222.93 154.979,221.93 149.5,222C 143.706,230.382 135.706,233.715 125.5,232C 122.167,230 118.833,228 115.5,226C 114.5,225.333 113.5,225.333 112.5,226C 106.125,229.047 100.292,232.881 95,237.5C 94.5688,244.931 90.7355,247.764 83.5,246C 78.1667,241.333 78.1667,236.667 83.5,232C 87.5,232 91.5,232 95.5,232C 100.667,228.833 105.833,225.667 111,222.5C 111.333,216.833 111.667,211.167 112,205.5C 113.271,202.567 114.938,199.901 117,197.5C 116.765,191.662 114.765,186.329 111,181.5C 106.606,180.045 102.106,178.878 97.5,178C 90.1044,169.329 91.1044,161.829 100.5,155.5 Z"/></g>
</svg>
